# Blender 3.5.0
# www.blender.org
mtllib 1floorbusiness.mtl
o SP_TD_House
v -3.766028 0.029198 4.175468
v -3.766028 4.393490 4.175468
v -3.766028 0.029198 -5.545877
v -3.766028 4.393490 -5.545877
v 3.766028 0.029198 4.175468
v 3.766028 4.393490 4.175468
v 3.766028 0.029198 -5.545877
v 3.766028 4.393490 -5.545877
v -3.766028 5.039354 4.175468
v -3.766028 5.039354 -5.545877
v 3.766028 5.039354 -5.545877
v 3.766028 5.039354 4.175468
v -4.189352 4.393490 4.592302
v -4.189373 4.393490 -5.545877
v 4.189352 5.039354 -5.545764
v 4.189352 4.393490 -5.545764
v 4.189352 4.393490 4.592302
v -4.189352 5.039354 4.592302
v -4.189373 5.039354 -5.545877
v 4.189352 5.039354 4.592302
v -1.455121 0.672276 4.183431
v -1.455121 3.073808 4.183431
v -3.231387 3.073808 4.183431
v -3.231387 0.672276 4.183431
v 3.244394 0.672276 4.183431
v 3.244394 3.073808 4.183431
v 1.468128 3.073808 4.183431
v 1.468128 0.672276 4.183431
v 0.994893 0.051033 4.183427
v 0.994893 3.305948 4.183427
v -0.953468 3.305948 4.183427
v -0.953468 0.051033 4.183427
v -3.766004 5.039354 -5.950771
v 3.766053 5.039354 -5.950771
v 4.189376 5.039354 -5.950657
v -4.189348 5.039354 -5.950771
v 4.189376 4.393490 -5.950657
v -4.189348 4.393490 -5.950771
v 3.766053 4.393490 -5.950771
v -3.766004 4.393490 -5.950771
v 1.743091 0.051034 -5.566430
v 1.743091 0.395589 -5.566430
v 1.888525 0.051034 -5.565594
v 1.888525 0.395589 -5.565594
v 2.033959 0.051034 -5.564759
v 1.743091 0.740144 -5.566430
v 2.033959 0.395589 -5.564759
v 2.179394 0.051034 -5.563924
v 1.888525 0.740144 -5.565594
v 1.743091 1.084700 -5.566430
v 2.179394 0.395589 -5.563924
v 2.324827 0.051034 -5.563088
v 2.033959 0.740144 -5.564759
v 1.888525 1.084700 -5.565594
v 1.743091 1.429255 -5.566430
v 2.324827 0.395589 -5.563088
v 2.470262 0.051034 -5.562253
v 2.179394 0.740144 -5.563924
v 2.033959 1.084700 -5.564759
v 1.888525 1.429255 -5.565594
v 1.743091 1.773811 -5.566430
v 2.179394 1.084700 -5.563924
v 1.888525 1.773811 -5.565594
v 1.743091 2.118366 -5.566430
v 2.033959 1.429255 -5.564759
v 1.888525 2.118366 -5.565594
v 1.743091 2.462922 -5.566430
v 2.033959 1.773811 -5.564759
v 1.888525 2.462922 -5.565594
v 1.743091 2.807477 -5.566430
v 2.033959 2.118366 -5.564759
v 2.179394 1.429255 -5.563924
v 1.888525 2.807477 -5.565594
v 1.743091 3.152032 -5.566430
v 2.033959 2.462922 -5.564759
v 2.179394 1.773811 -5.563924
v 1.888525 3.152032 -5.565594
v 1.743091 3.496588 -5.566430
v 1.888525 3.496588 -5.565594
v 2.033959 2.807477 -5.564759
v 2.033959 3.152032 -5.564759
v 2.033959 3.496588 -5.564759
v 2.179394 2.462922 -5.563924
v 2.179394 3.152032 -5.563924
v 2.179394 3.496588 -5.563924
v 2.179394 2.807477 -5.563924
v 2.324827 3.152032 -5.563088
v 2.324827 3.496588 -5.563088
v 2.324827 2.807477 -5.563088
v 2.324827 2.462922 -5.563088
v 2.470262 3.152032 -5.562253
v 2.470262 3.496588 -5.562253
v 2.470262 2.807477 -5.562253
v 2.470262 2.462922 -5.562253
v 2.615696 3.152032 -5.561417
v 2.615696 3.496588 -5.561417
v 2.615696 2.807477 -5.561417
v 2.615696 2.462922 -5.561417
v 2.761130 3.152032 -5.560581
v 2.761130 3.496588 -5.560581
v 2.761130 2.807477 -5.560581
v 2.761130 2.462922 -5.560581
v 2.906564 3.152032 -5.559746
v 2.906564 3.496588 -5.559746
v 2.906564 2.807477 -5.559746
v 2.906564 2.462922 -5.559746
v 3.051999 3.152032 -5.558910
v 3.051999 3.496588 -5.558910
v 3.197433 3.152032 -5.558075
v 3.197433 3.496588 -5.558075
v 3.197433 2.807477 -5.558075
v 3.051999 2.807477 -5.558910
v 3.197433 2.462922 -5.558075
v 3.051999 2.462922 -5.558910
v 3.197433 2.118366 -5.558075
v 3.051999 2.118366 -5.558910
v 3.197433 1.773811 -5.558075
v 2.906564 2.118366 -5.559746
v 3.051999 1.773811 -5.558910
v 3.197433 1.429255 -5.558075
v 2.761130 2.118366 -5.560581
v 2.906564 1.773811 -5.559746
v 3.051999 1.429255 -5.558910
v 3.197433 1.084700 -5.558075
v 2.615696 2.118366 -5.561417
v 3.051999 1.084700 -5.558910
v 3.197433 0.740144 -5.558075
v 2.906564 1.429255 -5.559746
v 2.761130 1.773811 -5.560581
v 3.051999 0.740144 -5.558910
v 3.197433 0.395589 -5.558075
v 2.906564 1.084700 -5.559746
v 2.761130 1.429255 -5.560581
v 3.051999 0.395589 -5.558910
v 3.197433 0.051034 -5.558075
v 3.051999 0.051034 -5.558910
v 2.906564 0.740144 -5.559746
v 2.906564 0.395589 -5.559746
v 2.906564 0.051034 -5.559746
v 2.761130 1.084700 -5.560581
v 2.761130 0.740144 -5.560581
v 2.761130 0.395589 -5.560581
v 2.761130 0.051034 -5.560581
v 2.615696 1.084700 -5.561417
v 2.615696 0.395589 -5.561417
v 2.615696 0.051034 -5.561417
v 2.615696 0.740144 -5.561417
v 2.470262 0.395589 -5.562253
v 2.470262 0.740144 -5.562253
v 2.324827 0.740144 -5.563088
v 2.324827 1.084700 -5.563088
v 2.470262 1.084700 -5.562253
v 2.324827 1.429255 -5.563088
v 2.470262 1.429255 -5.562253
v 2.324827 1.773811 -5.563088
v 2.615696 1.429255 -5.561417
v 2.470262 1.773811 -5.562253
v 2.615696 1.773811 -5.561417
v 2.470262 2.118366 -5.562253
v 2.324827 2.118366 -5.563088
v 2.179394 2.118366 -5.563924
vn -1.0000 -0.0000 -0.0000
vn 1.0000 -0.0000 -0.0000
vn -0.0000 -0.0000 1.0000
vn -0.0000 -1.0000 -0.0000
vn -0.0000 1.0000 -0.0000
vn -0.0000 -0.0000 -1.0000
vn 1.0000 -0.0000 0.0001
vn -1.0000 -0.0000 -0.0001
vn 0.0003 -0.0000 -1.0000
vn 0.0057 -0.0000 -1.0000
vt 0.000000 0.000000
vt 0.000000 0.000000
vt 0.000000 0.000000
vt 0.000000 0.000000
vt 0.000000 0.000000
vt 0.000000 0.000000
vt 0.000000 0.000000
vt 0.000000 0.000000
vt 0.000000 0.000000
vt 0.000000 0.000000
vt 0.000000 0.000000
vt 0.000000 0.000000
vt 0.000000 0.000000
vt 0.000000 0.000000
vt 0.000000 0.000000
vt 0.000000 0.000000
vt 0.000000 0.000000
vt 0.000000 0.000000
vt 0.000000 0.000000
vt 0.000000 0.000000
vt 1.000000 0.000000
vt 1.000000 1.000000
vt 0.000000 1.000000
vt 0.000000 0.000000
vt 1.000000 0.000000
vt 1.000000 1.000000
vt 0.000000 1.000000
vt 0.000000 0.000000
vt 1.000000 0.000000
vt 1.000000 1.000000
vt 0.000000 1.000000
vt 0.000000 0.000000
vt 0.000000 0.000000
vt 0.000000 0.000000
vt 0.000000 0.000000
vt 0.000000 0.000000
vt 0.000000 0.000000
vt 0.000000 0.000000
vt 0.000000 0.000000
vt 0.000000 0.000000
vt 1.000000 0.000000
vt 1.000000 0.100098
vt 0.899902 0.000000
vt 0.899902 0.100098
vt 0.799805 0.000000
vt 1.000000 0.200195
vt 0.799805 0.100098
vt 0.699707 0.000000
vt 0.899902 0.200195
vt 1.000000 0.300293
vt 0.699707 0.100098
vt 0.599609 0.000000
vt 0.799805 0.200195
vt 0.899902 0.300293
vt 1.000000 0.400391
vt 0.599609 0.100098
vt 0.500000 0.000000
vt 0.699707 0.200195
vt 0.799805 0.300293
vt 0.899902 0.400391
vt 1.000000 0.500000
vt 0.699707 0.300293
vt 0.899902 0.500000
vt 1.000000 0.600098
vt 0.799805 0.400391
vt 0.899902 0.600098
vt 1.000000 0.700195
vt 0.799805 0.500000
vt 0.899902 0.700195
vt 1.000000 0.800049
vt 0.799805 0.600098
vt 0.699707 0.400391
vt 0.899902 0.800049
vt 1.000000 0.900024
vt 0.799805 0.700195
vt 0.699707 0.500000
vt 0.899902 0.900024
vt 1.000000 1.000000
vt 0.899902 1.000000
vt 0.799805 0.800049
vt 0.799805 0.900024
vt 0.799805 1.000000
vt 0.699707 0.700195
vt 0.699707 0.900024
vt 0.699707 1.000000
vt 0.699707 0.800049
vt 0.599609 0.900024
vt 0.599609 1.000000
vt 0.599609 0.800049
vt 0.599609 0.700195
vt 0.500000 0.900024
vt 0.500000 1.000000
vt 0.500000 0.800049
vt 0.500000 0.700195
vt 0.399902 0.900024
vt 0.399902 1.000000
vt 0.399902 0.800049
vt 0.399902 0.700195
vt 0.299805 0.900024
vt 0.299805 1.000000
vt 0.299805 0.800049
vt 0.299805 0.700195
vt 0.199951 0.900024
vt 0.199951 1.000000
vt 0.199951 0.800049
vt 0.199951 0.700195
vt 0.099976 0.900024
vt 0.099976 1.000000
vt 0.000000 0.900024
vt 0.000000 1.000000
vt 0.000000 0.800049
vt 0.099976 0.800049
vt 0.000000 0.700195
vt 0.099976 0.700195
vt 0.000000 0.600098
vt 0.099976 0.600098
vt 0.000000 0.500000
vt 0.199951 0.600098
vt 0.099976 0.500000
vt 0.000000 0.400391
vt 0.299805 0.600098
vt 0.199951 0.500000
vt 0.099976 0.400391
vt 0.000000 0.300293
vt 0.399902 0.600098
vt 0.099976 0.300293
vt 0.000000 0.200195
vt 0.199951 0.400391
vt 0.299805 0.500000
vt 0.099976 0.200195
vt 0.000000 0.100098
vt 0.199951 0.300293
vt 0.299805 0.400391
vt 0.099976 0.100098
vt 0.000000 0.000000
vt 0.099976 0.000000
vt 0.199951 0.200195
vt 0.199951 0.100098
vt 0.199951 0.000000
vt 0.299805 0.300293
vt 0.299805 0.200195
vt 0.299805 0.100098
vt 0.299805 0.000000
vt 0.399902 0.300293
vt 0.399902 0.100098
vt 0.399902 0.000000
vt 0.399902 0.200195
vt 0.500000 0.100098
vt 0.500000 0.200195
vt 0.599609 0.200195
vt 0.599609 0.300293
vt 0.500000 0.300293
vt 0.599609 0.400391
vt 0.500000 0.400391
vt 0.599609 0.500000
vt 0.399902 0.400391
vt 0.500000 0.500000
vt 0.399902 0.500000
vt 0.500000 0.600098
vt 0.599609 0.600098
vt 0.699707 0.600098
s 0
usemtl Roof_Color
f 12/12/5 9/9/5 18/18/5 20/20/5
f 11/11/5 10/10/5 9/9/5 12/12/5
f 11/11/5 12/12/5 20/20/5 15/15/5
f 9/9/5 10/10/5 19/19/5 18/18/5
f 17/17/2 16/16/2 15/15/2 20/20/2
f 14/14/1 13/13/1 18/18/1 19/19/1
f 13/13/3 17/17/3 20/20/3 18/18/3
f 19/19/5 10/10/5 33/33/5 36/36/5
f 15/15/7 16/16/7 37/37/7 35/35/7
f 10/10/5 11/11/5 34/34/5 33/33/5
f 14/14/8 19/19/8 36/36/8 38/38/8
f 35/35/9 37/37/9 39/39/9
f 40/40/6 34/34/6 39/39/6
f 34/34/9 35/35/9 39/39/9
f 36/36/6 33/33/6 38/38/6
f 34/34/6 40/40/6 33/33/6
f 40/40/6 38/38/6 33/33/6
f 11/11/5 15/15/5 35/35/5 34/34/5
usemtl Exterior_Color
f 1/1/1 2/2/1 4/4/1 3/3/1
f 7/7/2 8/8/2 6/6/2 5/5/2
f 5/5/3 6/6/3 2/2/3 1/1/3
f 3/3/4 7/7/4 5/5/4 1/1/4
f 6/6/4 8/8/4 16/16/4 17/17/4
f 4/4/4 2/2/4 13/13/4 14/14/4
f 2/2/4 6/6/4 17/17/4 13/13/4
f 8/8/6 7/7/6 3/3/6
f 8/8/6 3/3/6 4/4/6
f 4/4/4 14/14/4 38/38/4 40/40/4
f 16/16/4 8/8/4 39/39/4 37/37/4
f 8/8/4 4/4/4 40/40/4 39/39/4
s 1
usemtl Window
f 21/21/3 22/22/3 23/23/3 24/24/3
f 25/25/3 26/26/3 27/27/3 28/28/3
usemtl Door
f 29/29/3 30/30/3 31/31/3 32/32/3
f 41/41/10 42/42/10 43/43/10
f 43/43/10 42/42/10 44/44/10
f 43/43/10 44/44/10 45/45/10
f 42/42/10 46/46/10 44/44/10
f 45/45/10 44/44/10 47/47/10
f 45/45/10 47/47/10 48/48/10
f 44/44/10 46/46/10 49/49/10
f 44/44/10 49/49/10 47/47/10
f 50/50/10 49/49/10 46/46/10
f 48/48/10 47/47/10 51/51/10
f 48/48/10 51/51/10 52/52/10
f 47/47/10 49/49/10 53/53/10
f 47/47/10 53/53/10 51/51/10
f 49/49/10 50/50/10 54/54/10
f 54/54/10 53/53/10 49/49/10
f 50/50/10 55/55/10 54/54/10
f 52/52/10 51/51/10 56/56/10
f 52/52/10 56/56/10 57/57/10
f 51/51/10 53/53/10 58/58/10
f 51/51/10 58/58/10 56/56/10
f 53/53/10 54/54/10 59/59/10
f 59/59/10 58/58/10 53/53/10
f 54/54/10 55/55/10 60/60/10
f 54/54/10 60/60/10 59/59/10
f 55/55/10 61/61/10 60/60/10
f 58/58/10 59/59/10 62/62/10
f 60/60/10 61/61/10 63/63/10
f 64/64/10 63/63/10 61/61/10
f 59/59/10 60/60/10 65/65/10
f 60/60/10 63/63/10 65/65/10
f 59/59/10 65/65/10 62/62/10
f 63/63/10 64/64/10 66/66/10
f 64/64/10 67/67/10 66/66/10
f 65/65/10 63/63/10 68/68/10
f 66/66/10 68/68/10 63/63/10
f 66/66/10 67/67/10 69/69/10
f 70/70/10 69/69/10 67/67/10
f 68/68/10 66/66/10 71/71/10
f 69/69/10 71/71/10 66/66/10
f 65/65/10 68/68/10 72/72/10
f 62/62/10 65/65/10 72/72/10
f 69/69/10 70/70/10 73/73/10
f 74/74/10 73/73/10 70/70/10
f 71/71/10 69/69/10 75/75/10
f 73/73/10 75/75/10 69/69/10
f 71/71/10 76/76/10 68/68/10
f 72/72/10 68/68/10 76/76/10
f 73/73/10 74/74/10 77/77/10
f 78/78/10 77/77/10 74/74/10
f 77/77/10 78/78/10 79/79/10
f 77/77/10 80/80/10 73/73/10
f 75/75/10 73/73/10 80/80/10
f 79/79/10 81/81/10 77/77/10
f 80/80/10 77/77/10 81/81/10
f 81/81/10 79/79/10 82/82/10
f 80/80/10 83/83/10 75/75/10
f 81/81/10 82/82/10 84/84/10
f 84/84/10 82/82/10 85/85/10
f 81/81/10 86/86/10 80/80/10
f 86/86/10 81/81/10 84/84/10
f 83/83/10 80/80/10 86/86/10
f 85/85/10 87/87/10 84/84/10
f 87/87/10 85/85/10 88/88/10
f 86/86/10 84/84/10 89/89/10
f 89/89/10 84/84/10 87/87/10
f 83/83/10 86/86/10 90/90/10
f 90/90/10 86/86/10 89/89/10
f 87/87/10 88/88/10 91/91/10
f 91/91/10 88/88/10 92/92/10
f 87/87/10 93/93/10 89/89/10
f 93/93/10 87/87/10 91/91/10
f 89/89/10 94/94/10 90/90/10
f 94/94/10 89/89/10 93/93/10
f 92/92/10 95/95/10 91/91/10
f 95/95/10 92/92/10 96/96/10
f 93/93/10 91/91/10 97/97/10
f 97/97/10 91/91/10 95/95/10
f 94/94/10 93/93/10 98/98/10
f 98/98/10 93/93/10 97/97/10
f 96/96/10 99/99/10 95/95/10
f 99/99/10 96/96/10 100/100/10
f 97/97/10 95/95/10 101/101/10
f 101/101/10 95/95/10 99/99/10
f 98/98/10 97/97/10 102/102/10
f 102/102/10 97/97/10 101/101/10
f 99/99/10 100/100/10 103/103/10
f 103/103/10 100/100/10 104/104/10
f 101/101/10 99/99/10 105/105/10
f 105/105/10 99/99/10 103/103/10
f 102/102/10 101/101/10 106/106/10
f 106/106/10 101/101/10 105/105/10
f 104/104/10 107/107/10 103/103/10
f 107/107/10 104/104/10 108/108/10
f 109/109/10 108/108/10 110/110/10
f 108/108/10 109/109/10 107/107/10
f 111/111/10 107/107/10 109/109/10
f 112/112/10 103/103/10 107/107/10
f 107/107/10 111/111/10 112/112/10
f 103/103/10 112/112/10 105/105/10
f 113/113/10 112/112/10 111/111/10
f 114/114/10 105/105/10 112/112/10
f 112/112/10 113/113/10 114/114/10
f 105/105/10 114/114/10 106/106/10
f 115/115/10 114/114/10 113/113/10
f 114/114/10 115/115/10 116/116/10
f 116/116/10 106/106/10 114/114/10
f 117/117/10 116/116/10 115/115/10
f 106/106/10 116/116/10 118/118/10
f 118/118/10 102/102/10 106/106/10
f 116/116/10 117/117/10 119/119/10
f 119/119/10 118/118/10 116/116/10
f 120/120/10 119/119/10 117/117/10
f 121/121/10 102/102/10 118/118/10
f 121/121/10 98/98/10 102/102/10
f 118/118/10 119/119/10 122/122/10
f 122/122/10 121/121/10 118/118/10
f 123/123/10 119/119/10 120/120/10
f 123/123/10 122/122/10 119/119/10
f 124/124/10 123/123/10 120/120/10
f 98/98/10 121/121/10 125/125/10
f 125/125/10 94/94/10 98/98/10
f 126/126/10 123/123/10 124/124/10
f 127/127/10 126/126/10 124/124/10
f 128/128/10 122/122/10 123/123/10
f 126/126/10 128/128/10 123/123/10
f 129/129/10 121/121/10 122/122/10
f 128/128/10 129/129/10 122/122/10
f 129/129/10 125/125/10 121/121/10
f 126/126/10 127/127/10 130/130/10
f 131/131/10 130/130/10 127/127/10
f 132/132/10 128/128/10 126/126/10
f 130/130/10 132/132/10 126/126/10
f 133/133/10 129/129/10 128/128/10
f 132/132/10 133/133/10 128/128/10
f 134/134/10 130/130/10 131/131/10
f 135/135/10 134/134/10 131/131/10
f 136/136/10 134/134/10 135/135/10
f 132/132/10 130/130/10 137/137/10
f 134/134/10 137/137/10 130/130/10
f 136/136/10 138/138/10 134/134/10
f 138/138/10 137/137/10 134/134/10
f 139/139/10 138/138/10 136/136/10
f 137/137/10 140/140/10 132/132/10
f 140/140/10 133/133/10 132/132/10
f 138/138/10 141/141/10 137/137/10
f 141/141/10 140/140/10 137/137/10
f 139/139/10 142/142/10 138/138/10
f 142/142/10 141/141/10 138/138/10
f 143/143/10 142/142/10 139/139/10
f 141/141/10 144/144/10 140/140/10
f 143/143/10 145/145/10 142/142/10
f 146/146/10 145/145/10 143/143/10
f 142/142/10 147/147/10 141/141/10
f 145/145/10 147/147/10 142/142/10
f 147/147/10 144/144/10 141/141/10
f 146/146/10 148/148/10 145/145/10
f 57/57/10 148/148/10 146/146/10
f 57/57/10 56/56/10 148/148/10
f 145/145/10 149/149/10 147/147/10
f 148/148/10 149/149/10 145/145/10
f 56/56/10 150/150/10 148/148/10
f 148/148/10 150/150/10 149/149/10
f 56/56/10 58/58/10 150/150/10
f 58/58/10 62/62/10 150/150/10
f 150/150/10 62/62/10 151/151/10
f 151/151/10 149/149/10 150/150/10
f 62/62/10 72/72/10 151/151/10
f 149/149/10 152/152/10 147/147/10
f 149/149/10 151/151/10 152/152/10
f 147/147/10 152/152/10 144/144/10
f 151/151/10 72/72/10 153/153/10
f 151/151/10 153/153/10 152/152/10
f 72/72/10 76/76/10 153/153/10
f 152/152/10 154/154/10 144/144/10
f 152/152/10 153/153/10 154/154/10
f 153/153/10 76/76/10 155/155/10
f 153/153/10 155/155/10 154/154/10
f 144/144/10 154/154/10 156/156/10
f 144/144/10 156/156/10 140/140/10
f 140/140/10 156/156/10 133/133/10
f 154/154/10 157/157/10 156/156/10
f 154/154/10 155/155/10 157/157/10
f 156/156/10 158/158/10 133/133/10
f 156/156/10 157/157/10 158/158/10
f 133/133/10 158/158/10 129/129/10
f 158/158/10 125/125/10 129/129/10
f 158/158/10 159/159/10 125/125/10
f 157/157/10 159/159/10 158/158/10
f 94/94/10 125/125/10 159/159/10
f 159/159/10 90/90/10 94/94/10
f 157/157/10 160/160/10 159/159/10
f 160/160/10 90/90/10 159/159/10
f 160/160/10 157/157/10 155/155/10
f 160/160/10 83/83/10 90/90/10
f 155/155/10 161/161/10 160/160/10
f 161/161/10 83/83/10 160/160/10
f 76/76/10 161/161/10 155/155/10
f 161/161/10 75/75/10 83/83/10
f 76/76/10 71/71/10 161/161/10
f 71/71/10 75/75/10 161/161/10
