# Blender 3.5.0
# www.blender.org
mtllib 2floorbusiness.mtl
o SP_TD_House
v 3.325072 0.022864 3.269619
v 3.325072 7.924645 3.269619
v 3.325072 0.022864 -5.987349
v 3.325072 7.924645 -5.987349
v 3.325072 8.430393 -5.987349
v 3.325072 8.430393 3.269619
v 3.729478 8.430393 -5.987260
v 3.729478 7.924645 -5.987260
v 3.729478 7.924645 3.596022
v 3.729478 8.430393 3.596022
v 2.822470 4.315694 3.275854
v 2.822470 6.996505 3.275854
v 0.224589 6.996505 3.275854
v 0.224589 4.315694 3.275854
v 3.325095 8.430393 -6.304402
v 3.729502 8.430393 -6.304313
v 3.729502 7.924645 -6.304313
v 3.325095 7.924645 -6.304402
v 0.000000 0.022864 -5.987349
v 0.000000 0.022864 3.269619
v 0.000000 7.924645 3.269619
v 0.000000 8.430393 -5.987349
v 0.000000 8.430393 3.269619
v 0.000000 7.924645 3.596022
v 0.000000 8.430393 3.596022
v 3.325072 0.023140 -5.987349
v 0.000000 0.023140 -5.987349
v 3.325072 8.430393 -6.307730
v 0.000000 8.430393 -6.307730
v 3.325072 7.930712 -6.303937
v 0.000000 7.930712 -6.303937
v 3.325072 8.430393 -6.307745
v 3.325072 7.930712 -6.303953
v 0.000000 7.930712 -6.303953
v 0.000000 8.430393 -6.307745
v 3.325072 8.430378 -5.987349
v 3.729460 8.430378 -5.987260
v 3.729460 8.430378 3.596022
v 3.325072 8.430378 3.269619
v 3.729460 7.924645 3.596022
v 3.729460 7.924645 -5.987260
v 3.729483 8.430378 -6.304313
v 3.729483 7.924645 -6.304313
v 3.325095 8.430378 -6.304402
v 3.325072 7.930712 -5.970659
v 0.000000 7.930712 -5.963556
v 3.325072 8.430408 -5.987349
v 3.325072 8.430408 -6.307730
v 0.000000 8.430408 -6.307730
v 0.000000 8.430408 -5.987349
v -1.000000 0.032957 3.278140
v 1.000000 0.032957 3.278140
v -1.000000 3.279547 3.278140
v 1.000000 3.279547 3.278140
v -3.325072 0.022864 3.269619
v -3.325072 7.924645 3.269619
v -3.325072 0.022864 -5.987349
v -3.325072 7.924645 -5.987349
v -3.325072 8.430393 -5.987349
v -3.325072 8.430393 3.269619
v -3.729478 8.430393 -5.987260
v -3.729478 7.924645 -5.987260
v -3.729478 7.924645 3.596022
v -3.729478 8.430393 3.596022
v -2.822470 4.315694 3.275854
v -2.822470 6.996505 3.275854
v -0.224589 6.996505 3.275854
v -0.224589 4.315694 3.275854
v -3.325095 8.430393 -6.304402
v -3.729502 8.430393 -6.304313
v -3.729502 7.924645 -6.304313
v -3.325095 7.924645 -6.304402
v 0.000000 0.022864 -5.987349
v 0.000000 0.022864 3.269619
v 0.000000 7.924645 3.269619
v 0.000000 8.430393 -5.987349
v 0.000000 8.430393 3.269619
v 0.000000 7.924645 3.596022
v 0.000000 8.430393 3.596022
v -3.325072 0.023140 -5.987349
v 0.000000 0.023140 -5.987349
v -3.325072 8.430393 -6.307730
v 0.000000 8.430393 -6.307730
v -3.325072 7.930712 -6.303937
v 0.000000 7.930712 -6.303937
v -3.325072 8.430393 -6.307745
v -3.325072 7.930712 -6.303953
v 0.000000 7.930712 -6.303953
v 0.000000 8.430393 -6.307745
v -3.325072 8.430378 -5.987349
v -3.729460 8.430378 -5.987260
v -3.729460 8.430378 3.596022
v -3.325072 8.430378 3.269619
v -3.729460 7.924645 3.596022
v -3.729460 7.924645 -5.987260
v -3.729483 8.430378 -6.304313
v -3.729483 7.924645 -6.304313
v -3.325095 8.430378 -6.304402
v -3.325072 7.930712 -5.970659
v 0.000000 7.930712 -5.963556
v -3.325072 8.430408 -5.987349
v -3.325072 8.430408 -6.307730
v 0.000000 8.430408 -6.307730
v 0.000000 8.430408 -5.987349
v 3.329727 4.412393 -0.720783
v 3.329727 7.185074 -0.720783
v 3.329727 7.185074 1.966126
v 3.329727 4.412393 1.966126
v -3.329727 4.412393 -0.720783
v -3.329727 7.185074 -0.720783
v -3.329727 7.185074 1.966126
v -3.329727 4.412393 1.966126
v 3.329727 4.412393 -4.720783
v 3.329727 7.185074 -4.720783
v 3.329727 7.185074 -2.033874
v 3.329727 4.412393 -2.033874
v -3.329727 4.412393 -4.720783
v -3.329727 7.185074 -4.720783
v -3.329727 7.185074 -2.033874
v -3.329727 4.412393 -2.033874
vn 1.0000 -0.0000 -0.0000
vn -0.0000 -1.0000 -0.0000
vn -0.0000 1.0000 -0.0000
vn -0.0000 -0.0000 1.0000
vn 1.0000 -0.0000 0.0001
vn 0.0002 -0.0000 -1.0000
vn -0.0000 -0.0000 -1.0000
vn -0.0000 0.0076 1.0000
vn -0.0000 -0.0076 -1.0000
vn -1.0000 -0.0000 -0.0000
vn -1.0000 -0.0000 -0.0001
vn -0.5895 0.3652 0.7205
vn -1.0000 -0.0000 0.0001
vn -0.0002 -0.0000 -1.0000
vn 1.0000 -0.0000 -0.0001
vn 0.5895 0.3652 0.7205
vn -0.0002 0.0009 -1.0000
vn -0.0002 0.0008 -1.0000
vt 0.000000 0.000000
vt 0.000000 0.000000
vt 0.000000 0.000000
vt 0.000000 0.000000
vt 0.000000 0.000000
vt 0.000000 0.000000
vt 0.000000 0.000000
vt 0.000000 0.000000
vt 0.000000 0.000000
vt 0.000000 0.000000
vt 1.000000 0.000000
vt 1.000000 1.000000
vt 0.000000 1.000000
vt 0.000000 0.000000
vt 0.000000 0.000000
vt 0.000000 0.000000
vt 0.000000 0.000000
vt 0.000000 0.000000
vt 0.000000 0.000000
vt 0.000000 0.000000
vt 0.000000 0.000000
vt 0.000000 0.000000
vt 0.000000 0.000000
vt 0.000000 0.000000
vt 0.000000 0.000000
vt 0.000000 0.000000
vt 0.000000 0.000000
vt 0.000000 0.000000
vt 0.000000 0.000000
vt 0.000000 0.000000
vt 0.000000 0.000000
vt 0.000000 0.000000
vt 0.000000 0.000000
vt 0.000000 0.000000
vt 0.000000 0.000000
vt 0.000000 0.000000
vt 0.000000 0.000000
vt 0.000000 0.000000
vt 0.000000 0.000000
vt 0.000000 0.000000
vt 0.000000 0.000000
vt 0.000000 0.000000
vt 0.000000 0.000000
vt 0.000000 0.000000
vt 0.000000 0.000000
vt 0.000000 0.000000
vt 0.000000 0.000000
vt 0.000000 0.000000
vt 0.000000 0.000000
vt 0.000000 0.000000
vt 0.000000 0.000000
vt 1.000000 0.000000
vt 0.000000 1.000000
vt 1.000000 1.000000
vt 0.000000 0.000000
vt 0.000000 0.000000
vt 0.000000 0.000000
vt 0.000000 0.000000
vt 0.000000 0.000000
vt 0.000000 0.000000
vt 0.000000 0.000000
vt 0.000000 0.000000
vt 0.000000 0.000000
vt 0.000000 0.000000
vt 1.000000 0.000000
vt 1.000000 1.000000
vt 0.000000 1.000000
vt 0.000000 0.000000
vt 0.000000 0.000000
vt 0.000000 0.000000
vt 0.000000 0.000000
vt 0.000000 0.000000
vt 0.000000 0.000000
vt 0.000000 0.000000
vt 0.000000 0.000000
vt 0.000000 0.000000
vt 0.000000 0.000000
vt 0.000000 0.000000
vt 0.000000 0.000000
vt 0.000000 0.000000
vt 0.000000 0.000000
vt 0.000000 0.000000
vt 0.000000 0.000000
vt 0.000000 0.000000
vt 0.000000 0.000000
vt 0.000000 0.000000
vt 0.000000 0.000000
vt 0.000000 0.000000
vt 0.000000 0.000000
vt 0.000000 0.000000
vt 0.000000 0.000000
vt 0.000000 0.000000
vt 0.000000 0.000000
vt 0.000000 0.000000
vt 0.000000 0.000000
vt 0.000000 0.000000
vt 0.000000 0.000000
vt 0.000000 0.000000
vt 0.000000 0.000000
vt 0.000000 0.000000
vt 0.000000 0.000000
vt 0.000000 0.000000
vt 0.000000 0.000000
vt 0.000000 0.000000
vt 1.000000 0.000000
vt 1.000000 1.000000
vt 0.000000 1.000000
vt 0.000000 0.000000
vt 1.000000 0.000000
vt 1.000000 1.000000
vt 0.000000 1.000000
vt 0.000000 0.000000
vt 1.000000 0.000000
vt 1.000000 1.000000
vt 0.000000 1.000000
vt 0.000000 0.000000
vt 1.000000 0.000000
vt 1.000000 1.000000
vt 0.000000 1.000000
vt 0.000000 0.000000
s 0
usemtl Roof_Color
f 2/2/2 4/4/2 8/8/2 9/9/2
f 5/5/3 6/6/3 10/10/3 7/7/3
f 9/9/1 8/8/1 7/7/1 10/10/1
f 24/24/4 9/9/4 10/10/4 25/25/4
f 21/21/2 2/2/2 9/9/2 24/24/2
f 7/7/5 8/8/5 17/17/5 16/16/5
f 8/8/2 4/4/2 18/18/2 17/17/2
f 16/16/6 17/17/6 18/18/6
f 15/15/6 16/16/6 18/18/6
f 5/5/3 7/7/3 16/16/3 15/15/3
f 5/5/3 22/22/3 23/23/3 6/6/3
f 6/6/3 23/23/3 25/25/3 10/10/3
f 5/5/2 22/22/2 29/29/2 28/28/2
f 28/28/8 29/29/8 31/31/8 30/30/8
f 32/32/9 33/33/9 34/34/9 35/35/9
f 29/29/3 28/28/3 32/32/3 35/35/3
f 31/31/10 29/29/10 35/35/10 34/34/10
f 30/30/2 31/31/2 34/34/2 33/33/2
f 28/28/1 30/30/1 33/33/1 32/32/1
f 36/36/2 37/37/2 38/38/2 39/39/2
f 40/40/10 38/38/10 37/37/10 41/41/10
f 37/37/11 42/42/11 43/43/11 41/41/11
f 36/36/2 44/44/2 42/42/2 37/37/2
f 17/17/2 8/8/2 41/41/2 43/43/2
f 6/6/10 5/5/10 36/36/10 39/39/10
f 9/9/4 10/10/4 38/38/4 40/40/4
f 16/16/7 17/17/7 43/43/7 42/42/7
f 5/5/11 15/15/11 44/44/11 36/36/11
f 10/10/12 6/6/12 39/39/12 38/38/12
f 15/15/6 16/16/6 42/42/6 44/44/6
f 34/34/2 33/33/2 45/45/2 46/46/2
f 47/47/3 48/48/3 49/49/3 50/50/3
f 29/29/10 22/22/10 50/50/10 49/49/10
f 28/28/7 29/29/7 49/49/7 48/48/7
f 5/5/1 28/28/1 48/48/1 47/47/1
f 22/22/4 5/5/4 47/47/4 50/50/4
f 56/56/2 63/63/2 62/62/2 58/58/2
f 59/59/3 61/61/3 64/64/3 60/60/3
f 63/63/10 64/64/10 61/61/10 62/62/10
f 78/78/4 79/79/4 64/64/4 63/63/4
f 75/75/2 78/78/2 63/63/2 56/56/2
f 61/61/13 70/70/13 71/71/13 62/62/13
f 62/62/2 71/71/2 72/72/2 58/58/2
f 70/70/14 72/72/14 71/71/14
f 69/69/14 72/72/14 70/70/14
f 59/59/3 69/69/3 70/70/3 61/61/3
f 59/59/3 60/60/3 77/77/3 76/76/3
f 60/60/3 64/64/3 79/79/3 77/77/3
f 59/59/2 82/82/2 83/83/2 76/76/2
f 82/82/8 84/84/8 85/85/8 83/83/8
f 86/86/9 89/89/9 88/88/9 87/87/9
f 83/83/3 89/89/3 86/86/3 82/82/3
f 85/85/1 88/88/1 89/89/1 83/83/1
f 84/84/2 87/87/2 88/88/2 85/85/2
f 82/82/10 86/86/10 87/87/10 84/84/10
f 90/90/2 93/93/2 92/92/2 91/91/2
f 94/94/1 95/95/1 91/91/1 92/92/1
f 91/91/15 95/95/15 97/97/15 96/96/15
f 90/90/2 91/91/2 96/96/2 98/98/2
f 71/71/2 97/97/2 95/95/2 62/62/2
f 60/60/1 93/93/1 90/90/1 59/59/1
f 63/63/4 94/94/4 92/92/4 64/64/4
f 70/70/7 96/96/7 97/97/7 71/71/7
f 59/59/15 90/90/15 98/98/15 69/69/15
f 64/64/16 92/92/16 93/93/16 60/60/16
f 69/69/17 98/98/18 96/96/18 70/70/17
f 88/88/2 100/100/2 99/99/2 87/87/2
f 101/101/3 104/104/3 103/103/3 102/102/3
f 83/83/1 103/103/1 104/104/1 76/76/1
f 82/82/7 102/102/7 103/103/7 83/83/7
f 59/59/10 101/101/10 102/102/10 82/82/10
f 76/76/4 104/104/4 101/101/4 59/59/4
usemtl Exterior_Color
f 3/3/1 4/4/1 2/2/1 1/1/1
f 19/19/2 3/3/2 1/1/2 20/20/2
f 1/1/4 2/2/4 21/21/4 20/20/4
f 22/22/7 5/5/7 26/26/7 27/27/7
f 8/8/2 9/9/2 40/40/2 41/41/2
f 57/57/10 55/55/10 56/56/10 58/58/10
f 73/73/2 74/74/2 55/55/2 57/57/2
f 55/55/4 74/74/4 75/75/4 56/56/4
f 76/76/7 81/81/7 80/80/7 59/59/7
f 62/62/2 95/95/2 94/94/2 63/63/2
s 1
usemtl Window
f 11/11/4 12/12/4 13/13/4 14/14/4
f 65/65/4 68/68/4 67/67/4 66/66/4
s 0
usemtl Door
f 51/51/4 52/52/4 54/54/4 53/53/4
s 1
usemtl SideWindow
f 105/105/1 106/106/1 107/107/1 108/108/1
f 109/109/10 112/112/10 111/111/10 110/110/10
f 113/113/1 114/114/1 115/115/1 116/116/1
f 117/117/10 120/120/10 119/119/10 118/118/10
