# Blender 3.5.0
# www.blender.org
mtllib Improved Cartman.mtl
o DrawCall_13_mater.002
v 0.472409 0.820952 -0.066451
v -0.018841 0.826660 0.335935
v 0.000798 0.728391 -0.255173
v -0.481903 0.821069 -0.098737
v -0.776973 1.327867 -0.470526
v -0.793162 1.123432 -0.008250
v -0.873270 1.453252 -0.103758
v 0.020049 1.172653 -0.787374
v -0.459893 1.203961 -0.718089
v 0.494417 1.203845 -0.685804
v 0.794832 1.327676 -0.417350
v 0.759800 1.872847 -0.164078
v 0.866944 1.453041 -0.044886
v 0.493060 1.716633 -0.600716
v 0.010698 2.140626 -0.425329
v 0.021542 1.714431 -0.784268
v -0.245673 2.142163 -0.322268
v 0.204355 2.141732 -0.334978
v -0.461251 1.716748 -0.633000
v -0.755870 1.873031 -0.215350
v 0.337178 2.144729 -0.107012
v 0.778644 1.123242 0.044924
v 0.019729 0.626899 -0.825510
v 0.713910 0.629827 -0.578556
v 0.017296 0.085497 -0.800714
v 0.682593 0.209284 -0.519917
v -0.720803 0.209453 -0.567393
v -0.745623 0.630002 -0.627931
v -1.015547 0.245257 -0.156638
v -0.071418 0.399883 0.191181
v -0.773116 0.399968 0.167444
v -0.066226 -0.015871 0.307156
v -0.651896 -0.017307 0.175608
v -0.783780 -0.020680 -0.080259
v -0.752445 0.391681 -0.446400
v -0.630285 -0.025969 -0.466139
v -0.038040 -0.027170 -0.529905
v -0.050747 0.391598 -0.422661
v 1.033734 0.642749 -0.062033
v 0.950040 0.220707 -0.116901
v -1.071362 0.643004 -0.133248
v 0.709554 0.257257 0.351558
v 0.679915 0.559210 0.423640
v -0.717154 0.991751 -0.607300
v -0.901534 0.998174 -0.138663
v -0.755434 1.116377 -0.294436
v -0.767740 1.030913 0.063120
v -0.720184 0.913818 0.309247
v -0.593480 1.239471 -0.086536
v 0.585374 1.239328 -0.046655
v 1.140077 1.396945 -0.045368
v 0.781618 1.243755 -0.261637
v 1.131498 1.279856 0.198861
v 0.760237 1.116191 -0.243161
v 1.144376 1.003506 -0.207270
v 0.894816 0.997956 -0.077893
v 1.147472 1.273453 -0.275474
v 1.330421 1.041404 -0.175124
v -0.000424 2.295744 -0.081893
v -0.230727 2.177553 0.071033
v -0.336453 2.144810 -0.129803
v 0.218361 2.177499 0.086226
v -0.009943 2.179033 0.190238
v 0.548445 2.029496 0.284321
v -0.574275 2.029632 0.246340
v -0.018391 1.004092 0.338153
v -0.024183 0.855754 0.496953
v 0.321304 1.063161 0.269289
v 0.597132 0.914412 0.409680
v 0.013706 1.141883 -0.601902
v 0.742381 0.991574 -0.557922
v -0.779618 0.559388 0.374263
v -0.028362 0.561932 0.595214
v -0.027882 0.109761 0.541473
v -0.721911 0.257431 0.303132
v 0.061525 0.391584 -0.418862
v 0.063704 -0.024429 -0.526306
v 0.040854 0.399870 0.194980
v 0.600634 -0.014703 0.218139
v 0.714486 0.399789 0.217768
v 0.035515 -0.013128 0.310757
v 0.752249 -0.019240 -0.111939
v -0.779460 1.243943 -0.314446
v -1.122730 1.367100 -0.123640
v -1.128767 0.977804 0.021380
v -1.279428 1.008886 -0.260895
v -1.367237 1.161001 -0.143527
v -1.279150 1.279962 -0.245394
v -1.288547 1.283729 0.033627
v -1.288821 1.012653 0.018122
v -1.131309 1.250011 0.120589
v 1.330696 1.312482 -0.159620
v 1.410050 1.163756 -0.025876
v 1.321025 1.045171 0.103898
v -0.018491 2.092063 0.436187
v -1.115336 1.243607 -0.353746
v -1.118433 0.973661 -0.285542
v 1.134040 1.007649 0.099650
v 0.747929 1.030729 0.114395
v 1.321301 1.316248 0.119399
v 0.622244 -0.023365 -0.423608
v -0.499772 1.732191 0.510982
v -0.800157 1.638480 0.244253
v -0.499294 1.280021 0.457241
v -0.026314 1.793880 0.642178
v 0.454538 1.732076 0.543269
v 0.771649 1.638290 0.297428
v 0.455017 1.279905 0.489526
v -0.436532 1.063252 0.243650
v -0.003144 1.208903 -0.096218
v 0.735047 0.367566 -0.394902
v -0.027745 1.312342 0.642519
v -0.499294 1.280021 0.457241
v -0.023355 1.009262 0.485783
v 0.455017 1.279905 0.489526
v -0.496690 1.068053 0.361477
v 0.457621 1.067937 0.393764
v -0.018841 0.826660 0.335936
v -0.496690 1.068053 0.361477
v -0.481903 0.821070 -0.098735
v -0.793162 1.123432 -0.008248
v 0.457621 1.067937 0.393764
v 0.472409 0.820953 -0.066449
v 0.778644 1.123243 0.044926
v -0.499294 1.280021 0.457241
v -0.023355 1.009262 0.485783
v 0.455017 1.279905 0.489526
v -0.026314 1.793880 0.642178
v -0.499772 1.732191 0.510982
v -0.027745 1.312342 0.642519
v -0.499294 1.280021 0.457241
v 0.454538 1.732076 0.543269
v 0.455017 1.279905 0.489526
vn 0.4413 -0.8590 -0.2597
vn -0.0056 -0.9865 0.1638
vn 0.0091 -0.9591 -0.2829
vn -0.4242 -0.8581 -0.2894
vn -0.8245 -0.1855 -0.5346
vn -0.8986 -0.4378 0.0286
vn -0.9996 -0.0023 -0.0281
vn 0.0306 -0.4177 -0.9081
vn -0.4275 -0.3707 -0.8245
vn 0.4816 -0.3724 -0.7934
vn 0.8579 -0.1892 -0.4777
vn 0.8015 0.5569 -0.2177
vn 0.9992 -0.0077 0.0392
vn 0.5134 0.4127 -0.7524
vn 0.0173 0.7706 -0.6371
vn 0.0305 0.3679 -0.9294
vn -0.3499 0.8086 -0.4729
vn 0.3583 0.7987 -0.4834
vn -0.4588 0.4130 -0.7868
vn -0.7865 0.5564 -0.2679
vn 0.4526 0.8843 -0.1148
vn 0.8926 -0.4420 0.0893
vn 0.0408 0.1269 -0.9911
vn 0.6234 -0.0616 -0.7795
vn 0.0296 -0.6998 -0.7137
vn 0.5472 -0.6084 -0.5748
vn -0.5022 -0.6428 -0.5784
vn -0.5868 -0.0133 -0.8096
vn -0.7943 -0.6066 -0.0336
vn 0.7303 0.1920 0.6556
vn -0.7553 0.0035 0.6554
vn 0.5222 -0.4978 0.6924
vn -0.4096 -0.6721 0.6168
vn -0.7405 -0.6710 0.0380
vn -0.7213 -0.0085 -0.6925
vn -0.4053 -0.6536 -0.6392
vn 0.5730 -0.5116 -0.6402
vn 0.7741 0.1790 -0.6072
vn 0.9954 0.0489 0.0825
vn 0.7780 -0.6278 -0.0248
vn -0.9936 0.1131 -0.0025
vn 0.5785 -0.5415 0.6100
vn 0.5737 -0.0045 0.8191
vn -0.4990 0.5069 -0.7028
vn -0.7265 -0.6735 -0.1365
vn -0.1184 0.4790 -0.8698
vn -0.4128 0.4580 0.7873
vn -0.5206 0.4857 0.7021
vn 0.0619 0.9843 0.1654
vn -0.0857 0.9828 0.1639
vn 0.1329 0.9911 -0.0072
vn -0.3691 0.4687 -0.8026
vn -0.0182 0.3949 0.9185
vn 0.2000 0.4692 -0.8601
vn 0.2391 -0.7725 -0.5883
vn 0.7577 -0.6505 -0.0531
vn 0.4862 0.3549 -0.7985
vn 0.6106 -0.5950 -0.5226
vn 0.0048 1.0000 -0.0082
vn -0.3032 0.9262 0.2240
vn -0.4483 0.8878 -0.1046
vn 0.2881 0.9259 0.2443
vn -0.0121 0.9310 0.3649
vn 0.5440 0.7288 0.4158
vn -0.5691 0.7304 0.3777
vn -0.0192 0.8131 0.5818
vn -0.0491 0.5079 0.8600
vn 0.0153 0.8235 0.5671
vn 0.4152 0.4687 0.7797
vn 0.0215 0.7777 -0.6283
vn 0.5704 0.4702 -0.6735
vn -0.6225 -0.0093 0.7825
vn -0.0361 0.0751 0.9965
vn -0.0233 -0.7196 0.6940
vn -0.5167 -0.6312 0.5785
vn -0.7416 0.1641 -0.6504
vn -0.5208 -0.5140 -0.6816
vn -0.7787 0.1787 0.6014
vn 0.4077 -0.6662 0.6245
vn 0.7032 -0.0014 0.7110
vn -0.5605 -0.5014 0.6591
vn 0.7450 -0.6667 0.0199
vn 0.4027 0.4999 -0.7668
vn 0.0760 0.9971 -0.0067
vn -0.0716 -0.8381 0.5408
vn -0.5945 -0.5979 -0.5377
vn -0.9930 0.0466 -0.1090
vn -0.6175 0.5892 -0.5211
vn -0.6360 0.5589 0.5320
vn -0.5931 -0.6084 0.5273
vn -0.0662 0.3881 0.9192
vn 0.6491 0.5850 -0.4863
vn 0.9984 -0.0452 0.0328
vn 0.5358 -0.6201 0.5731
vn -0.0207 0.7823 0.6226
vn 0.2653 0.3742 -0.8886
vn 0.1057 -0.7953 -0.5969
vn 0.0766 -0.8238 0.5617
vn 0.3976 0.3457 0.8500
vn 0.5909 0.5668 0.5741
vn 0.4260 -0.6550 -0.6241
vn -0.5411 0.3447 0.7671
vn -0.8795 0.1310 0.4575
vn -0.7174 -0.2069 0.6652
vn -0.0280 0.5687 0.8221
vn 0.4884 0.3420 0.8028
vn 0.8473 0.1268 0.5158
vn 0.6704 -0.2109 0.7114
vn -0.1124 0.7897 0.6031
vn -0.0067 0.9886 0.1503
vn 0.7627 0.0198 -0.6464
vn -0.0297 -0.4595 0.8877
vn -0.2875 -0.4143 0.8635
vn -0.0308 -0.4462 0.8944
vn 0.2282 -0.4156 0.8804
vn -0.2789 -0.3982 0.8738
vn 0.2190 -0.3995 0.8902
vn -0.0228 -0.7542 0.6562
vn -0.6049 -0.5888 0.5361
vn -0.4978 -0.7707 0.3976
vn -0.6541 -0.6214 0.4314
vn 0.5661 -0.5913 0.5744
vn 0.4685 -0.7721 0.4294
vn 0.6221 -0.6234 0.4737
vn -0.7705 -0.2703 0.5773
vn -0.0259 -0.6345 0.7725
vn 0.7289 -0.2744 0.6272
vn -0.0334 0.0008 0.9994
vn -0.3146 -0.0568 0.9475
vn -0.0342 -0.0547 0.9979
vn -0.3569 -0.1106 0.9276
vn 0.2498 -0.0585 0.9665
vn 0.2933 -0.1125 0.9494
vt 0.187500 0.062500
vt 0.187500 0.125000
vt 0.093750 0.099120
vt 0.125000 0.062500
vt 0.125000 0.125000
vt 0.062500 0.062500
vt 0.073730 0.099120
vt 0.062500 0.125000
vt 0.068050 0.088500
vt 0.062500 0.968750
vt 0.068050 0.101010
vt 0.065550 0.090820
vt 0.093750 0.968750
vt 0.125000 0.062500
vt 0.125000 0.968750
vt 0.074710 0.086910
vt 0.093750 0.968750
vt 0.062500 0.062500
vt 0.187500 0.062500
vt 0.156250 0.968750
vt 0.092770 0.086910
vt 0.187500 0.968750
vt 0.099610 0.088870
vt 0.179020 0.566470
vt 0.187500 0.843750
vt 0.178710 0.566890
vt 0.187500 0.968750
vt 0.102050 0.090820
vt 0.156250 0.843750
vt 0.149900 0.520020
vt 0.150210 0.519900
vt 0.100710 0.493840
vt 0.125000 0.937500
vt 0.125000 0.843750
vt 0.100590 0.519040
vt 0.078610 0.493650
vt 0.108700 0.937500
vt 0.121950 0.493710
vt 0.121580 0.494140
vt 0.125000 0.937500
vt 0.050780 0.520020
vt 0.062500 0.843750
vt 0.022400 0.566470
vt 0.062500 0.843750
vt 0.021970 0.566890
vt 0.148440 0.493650
vt 0.125000 0.937500
vt 0.148740 0.493530
vt 0.099910 0.101010
vt 0.375000 0.187500
vt 0.250000 0.187500
vt 0.375000 0.187500
vt 0.500000 0.500000
vt 0.250000 0.250000
vt 0.500000 0.500000
vt 0.375000 0.250000
vt 0.500000 0.500000
vt 0.375000 0.187500
vt 0.437500 0.500000
vt 0.500000 0.500000
vt 0.312500 0.926450
vt 0.312500 0.926450
vt 0.281250 0.926450
vt 0.281250 0.991210
vt 0.312500 0.991210
vt 0.312500 0.991210
vt 0.281250 0.991210
vt 0.250000 0.991210
vt 0.281250 0.991210
vt 0.281250 0.926450
vt 0.250000 0.991210
vt 0.250000 0.991210
vt 0.281250 0.926450
vt 0.812500 0.250000
vt 0.250000 0.187500
vt 0.250000 0.250000
vt 0.812500 0.312500
vt 0.500000 0.500000
vt 0.437500 0.187500
vt 0.937500 0.937500
vt 0.500000 0.500000
vt 0.937500 0.687500
vt 0.375000 0.125000
vt 0.375000 0.125000
vt 0.312500 0.187500
vt 0.312500 0.125000
vt 0.375000 0.312500
vt 0.562500 0.312500
vt 0.312500 0.125000
vt 0.312500 0.125000
vt 0.875000 0.187500
vt 0.375000 0.187500
vt 0.516600 0.467290
vt 0.093750 0.937500
vt 0.312500 0.125000
vt 0.375000 0.187500
vt 0.125000 0.937500
vt 0.312500 0.187500
vt 0.312500 0.250000
vt 0.454100 0.467290
vt 0.062500 0.968750
vt 0.250000 0.125000
vt 0.812500 0.187500
vt 0.312500 0.187500
vt 0.422850 0.492190
vt 0.062500 0.937500
vt 0.125000 0.968750
vt 0.125000 0.937500
vt 0.075200 0.488280
vt 0.111270 0.937500
vt 0.075560 0.488280
vt 0.058110 0.493650
vt 0.093750 0.937500
vt 0.058290 0.493530
vt 0.125000 0.937500
vt 0.115720 0.488770
vt 0.125000 0.937500
vt 0.088870 0.484380
vt 0.150210 0.589230
vt 0.156250 0.843750
vt 0.149900 0.589360
vt 0.051210 0.589230
vt 0.093750 0.843750
vt 0.050780 0.589360
vt 0.750000 0.000000
vt 0.750000 0.312500
vt 0.875000 0.062500
vt 0.937500 0.062500
vt 0.937500 0.312500
vt 0.375000 0.125000
vt 0.312500 0.062500
vt 0.375000 0.062500
vt 0.250000 0.125000
vt 0.562500 0.687500
vt 0.375000 0.687500
vt 0.750000 0.687500
vt 0.750000 0.937500
vt 0.500000 0.500000
vt 0.562500 0.937500
vt 0.375000 0.937500
vt 0.500000 0.500000
vt 0.281250 0.926450
vt 0.250000 0.991210
vt 0.281250 0.991210
vt 0.312500 0.926450
vt 0.312500 0.991210
vt 0.281250 0.926450
vt 0.312500 0.926450
vt 0.281250 0.926760
vt 0.312500 0.991210
vt 0.281250 0.991210
vt 0.312500 0.125000
vt 0.375000 0.187500
vt 0.516600 0.467290
vt 0.125000 0.937500
vt 0.375000 0.187500
vt 0.125000 0.968750
vt 0.125000 0.968750
vt 0.125000 0.968750
vt 0.125000 0.968750
vt 0.125000 0.968750
vt 0.125000 0.968750
vt 0.125000 0.937500
vt 0.375000 0.187500
vt 0.125000 0.968750
vt 0.125000 0.968750
vt 0.125000 0.968750
vt 0.100710 0.613650
vt 0.125000 0.843750
vt 0.062500 0.968750
vt 0.312500 0.187500
vt 0.422850 0.492190
vt 0.062500 0.937500
vt 0.312500 0.250000
vt 0.454100 0.467290
vt 0.375000 0.187500
vt 0.125000 0.968750
vt 0.312500 0.125000
vt 0.875000 0.187500
vt 0.125000 0.968750
vt 0.281250 0.991210
vt 0.073970 0.094730
vt 0.093750 0.968750
vt 0.068050 0.093080
vt 0.062500 0.968750
vt 0.073970 0.104680
vt 0.125000 0.968750
vt 0.156250 0.968750
vt 0.093750 0.094730
vt 0.187500 0.968750
vt 0.099610 0.093260
vt 0.093990 0.104860
vt 0.437500 0.125000
vt 0.625000 0.062500
vt 0.375000 0.062500
vt 0.281250 0.926450
vt 0.500000 0.000000
vt 0.000000 0.000000
vt 0.500000 1.000000
vt 1.000000 0.000000
vt 0.000000 1.000000
vt 1.000000 1.000000
vt 0.968750 1.343750
vt 0.375000 0.625000
vt 0.375000 1.250000
vt -0.250000 0.375000
vt 0.375000 0.625000
vt 0.375000 1.250000
vt -0.250000 0.375000
vt 0.250000 0.000000
vt 0.968750 0.812500
vt 0.250000 0.000000
vt 0.500000 0.000000
vt 0.000000 0.000000
vt 0.500000 1.000000
vt 0.000000 1.000000
vt 1.000000 0.000000
vt 1.000000 1.000000
s 1
usemtl Material_Body.png_Body.png
f 1/1/1 2/4/2 3/5/3
f 4/6/4 3/5/3 2/4/2
f 5/9/5 6/11/6 7/12/7
f 8/14/8 3/5/3 9/18/9
f 8/14/8 10/19/10 3/5/3
f 11/22/11 12/25/12 13/27/13
f 11/22/11 14/29/14 12/25/12
f 5/9/5 4/7/4 6/11/6
f 9/16/9 4/7/4 5/9/5
f 15/32/15 16/35/16 17/36/17
f 15/32/15 18/38/18 16/35/16
f 19/41/19 17/36/17 16/35/16
f 19/41/19 20/45/20 17/36/17
f 10/19/10 1/2/1 3/5/3
f 10/20/10 14/29/14 11/22/11
f 10/20/10 16/34/16 14/29/14
f 8/15/8 16/34/16 10/20/10
f 8/15/8 9/17/9 16/34/16
f 16/34/16 9/17/9 19/42/19
f 9/17/9 5/10/5 19/42/19
f 19/42/19 5/10/5 20/44/20
f 5/10/5 7/13/7 20/44/20
f 21/48/21 12/26/12 18/38/18
f 9/18/9 3/5/3 4/8/4
f 1/3/1 11/23/11 22/49/22
f 11/23/11 1/3/1 10/21/10
f 11/23/11 13/28/13 22/49/22
f 14/30/14 16/35/16 18/38/18
f 23/50/23 24/51/24 25/52/25
f 24/51/24 26/54/26 25/52/25
f 27/56/27 28/58/28 25/52/25
f 23/50/23 25/52/25 28/58/28
f 27/56/27 29/59/29 28/58/28
f 30/61/30 31/62/31 32/64/32
f 33/67/33 31/62/31 34/68/34
f 34/68/34 35/70/35 36/71/36
f 36/71/36 35/70/35 37/72/37
f 38/73/38 37/72/37 35/70/35
f 39/75/39 40/76/40 24/51/24
f 24/51/24 40/76/40 26/54/26
f 41/79/41 28/58/28 29/59/29
f 42/80/42 40/77/40 43/82/43
f 39/74/39 43/82/43 40/77/40
f 44/83/44 45/84/45 46/85/46
f 47/86/47 48/87/48 49/89/49
f 45/84/45 48/87/48 47/86/47
f 50/90/50 51/92/51 52/95/52
f 53/96/53 51/92/51 50/90/50
f 54/98/54 55/99/55 56/102/56
f 55/101/55 57/106/57 58/107/58
f 18/40/18 59/108/59 21/47/21
f 17/37/17 59/108/59 15/33/15
f 60/110/60 59/108/59 61/113/61
f 62/115/62 59/108/59 63/117/63
f 14/31/14 18/39/18 12/24/12
f 62/116/62 64/119/64 21/46/21
f 61/112/61 17/36/17 20/43/20
f 60/109/60 65/122/65 63/118/63
f 66/125/66 67/126/67 68/127/68
f 68/127/68 67/126/67 69/129/69
f 68/128/68 69/129/69 50/91/50
f 70/131/70 50/90/50 71/133/71
f 70/132/70 44/83/44 49/89/49
f 72/134/72 73/136/73 48/88/48
f 67/126/67 48/88/48 73/136/73
f 67/126/67 73/136/73 69/129/69
f 69/129/69 73/136/73 43/82/43
f 43/82/43 39/74/39 69/129/69
f 56/103/56 69/129/69 39/74/39
f 45/84/45 44/83/44 41/79/41
f 73/136/73 72/134/72 74/137/74
f 72/134/72 75/139/75 74/137/74
f 45/84/45 41/79/41 48/87/48
f 48/87/48 41/79/41 72/135/72
f 56/102/56 39/75/39 71/133/71
f 71/133/71 39/75/39 24/51/24
f 24/51/24 23/50/23 71/133/71
f 44/83/44 23/50/23 28/58/28
f 28/58/28 41/79/41 44/83/44
f 41/79/41 29/59/29 72/135/72
f 70/130/70 71/133/71 23/50/23
f 70/130/70 23/50/23 44/83/44
f 75/140/75 72/135/72 29/59/29
f 76/142/76 77/143/77 78/145/78
f 79/146/79 80/147/80 81/150/81
f 81/150/81 82/151/82 79/146/79
f 49/89/49 83/152/83 84/153/84
f 45/84/45 47/86/47 85/156/85
f 86/158/86 87/159/87 88/160/88
f 89/161/89 87/159/87 90/162/90
f 85/157/85 91/163/91 90/162/90
f 91/163/91 84/155/84 89/161/89
f 35/70/35 34/68/34 31/62/31
f 34/69/34 32/65/32 33/66/33
f 92/165/92 93/166/93 58/107/58
f 93/166/93 94/167/94 58/107/58
f 59/108/59 18/40/18 15/33/15
f 59/108/59 17/37/17 61/113/61
f 59/108/59 60/110/60 63/117/63
f 59/108/59 62/115/62 21/47/21
f 95/168/95 63/118/63 65/122/65
f 64/119/64 63/118/63 95/168/95
f 64/119/64 62/116/62 63/118/63
f 96/171/96 84/153/84 83/152/83
f 49/89/49 46/85/46 83/152/83
f 49/89/49 44/83/44 46/85/46
f 71/133/71 50/90/50 54/98/54
f 56/102/56 71/133/71 54/98/54
f 91/164/91 85/156/85 47/86/47
f 97/174/97 46/85/46 45/84/45
f 57/104/57 55/99/55 54/98/54
f 98/176/98 56/102/56 55/99/55
f 57/104/57 52/95/52 51/92/51
f 53/96/53 99/178/99 98/176/98
f 99/178/99 53/96/53 50/90/50
f 56/102/56 98/176/98 99/178/99
f 54/98/54 50/90/50 52/95/52
f 52/95/52 57/104/57 54/98/54
f 51/93/51 55/100/55 57/105/57
f 93/166/93 92/165/92 100/180/100
f 94/167/94 93/166/93 100/180/100
f 100/180/100 92/165/92 51/94/51
f 51/94/51 53/97/53 100/180/100
f 94/167/94 100/180/100 53/97/53
f 92/165/92 58/107/58 57/106/57
f 92/165/92 57/106/57 51/94/51
f 58/107/58 94/167/94 98/177/98
f 53/97/53 98/177/98 94/167/94
f 98/177/98 55/101/55 58/107/58
f 97/173/97 86/158/86 96/170/96
f 89/161/89 90/162/90 91/163/91
f 97/173/97 85/157/85 86/158/86
f 96/170/96 88/160/88 84/155/84
f 87/159/87 86/158/86 90/162/90
f 87/159/87 89/161/89 88/160/88
f 88/160/88 96/170/96 86/158/86
f 36/71/36 37/72/37 34/69/34
f 32/64/32 38/73/38 30/61/30
f 32/64/32 37/72/37 38/73/38
f 33/67/33 32/64/32 31/63/31
f 79/146/79 82/151/82 80/147/80
f 81/150/81 77/143/77 82/151/82
f 101/181/101 82/151/82 77/143/77
f 77/143/77 81/150/81 78/145/78
f 42/80/42 43/82/43 74/137/74
f 73/136/73 74/137/74 43/82/43
f 102/182/102 103/184/103 104/186/104
f 103/184/103 7/12/7 6/11/6
f 103/184/103 6/11/6 104/186/104
f 105/187/105 106/188/106 95/169/95
f 106/188/106 107/190/107 64/120/64
f 106/188/106 64/120/64 95/169/95
f 107/190/107 13/27/13 12/25/12
f 107/190/107 12/25/12 64/120/64
f 105/187/105 95/169/95 102/183/102
f 95/169/95 65/123/65 102/183/102
f 102/183/102 65/123/65 103/185/103
f 65/123/65 20/44/20 103/185/103
f 103/185/103 20/44/20 7/13/7
f 108/192/108 22/49/22 107/191/107
f 106/189/106 108/192/108 107/191/107
f 107/191/107 22/49/22 13/28/13
f 65/124/65 60/111/60 61/114/61
f 65/124/65 61/114/61 20/45/20
f 64/121/64 12/26/12 21/48/21
f 109/193/109 110/195/110 49/89/49
f 66/125/66 110/195/110 109/193/109
f 68/128/68 110/195/110 66/125/66
f 50/90/50 110/195/110 68/128/68
f 70/131/70 110/195/110 50/90/50
f 69/129/69 56/103/56 99/179/99
f 109/193/109 49/89/49 48/87/48
f 50/91/50 69/129/69 99/179/99
f 49/89/49 110/195/110 70/132/70
f 66/125/66 109/194/109 67/126/67
f 48/88/48 67/126/67 109/194/109
f 96/171/96 83/152/83 46/85/46
f 97/174/97 96/171/96 46/85/46
f 45/84/45 85/156/85 97/174/97
f 84/153/84 91/164/91 49/89/49
f 91/164/91 47/86/47 49/89/49
f 84/154/84 97/175/97 96/172/96
f 88/160/88 89/161/89 84/155/84
f 90/162/90 86/158/86 85/157/85
f 25/53/25 29/60/29 27/57/27
f 75/141/75 29/60/29 74/138/74
f 42/81/42 74/138/74 40/78/40
f 40/78/40 25/53/25 26/55/26
f 29/60/29 25/53/25 74/138/74
f 40/78/40 74/138/74 25/53/25
f 78/145/78 81/150/81 80/148/80
f 111/196/111 82/151/82 101/181/101
f 76/142/76 111/196/111 77/143/77
f 111/196/111 80/149/80 82/151/82
f 101/181/101 77/144/77 111/196/111
f 32/65/32 34/69/34 37/72/37
usemtl Material.002_Mouth.pn_Mouth.png
f 112/197/112 113/198/113 114/199/114
f 112/197/112 114/199/114 115/200/115
f 116/201/116 114/199/114 113/198/113
f 117/202/117 115/200/115 114/199/114
usemtl Material.003_Neck.png_Neck.png
f 118/203/118 119/204/119 120/205/120
f 119/204/119 121/206/121 120/205/120
f 122/207/122 118/203/118 123/208/123
f 124/209/124 122/207/122 123/208/123
f 125/210/125 121/206/121 119/204/119
f 119/204/119 118/203/118 126/211/126
f 126/211/126 118/203/118 122/207/122
f 127/212/127 122/207/122 124/209/124
usemtl Material.001_Eyes.png_Eyes.png
f 128/213/128 129/214/129 130/215/130
f 129/214/129 131/216/131 130/215/130
f 128/213/128 130/215/130 132/217/132
f 132/217/132 130/215/130 133/218/133
